<svg width="77" height="77" viewBox="0 0 77 77" fill="none" xmlns="http://www.w3.org/2000/svg">
<path fill-rule="evenodd" clip-rule="evenodd" d="M38.1705 0C17.0895 0 0 17.0895 0 38.1705C0 59.2515 17.0895 76.341 38.1705 76.341C59.2515 76.341 76.341 59.2515 76.341 38.1705C76.341 17.0895 59.2515 0 38.1705 0ZM29.7776 17.936C31.9486 17.8372 32.6426 17.813 38.1686 17.813C43.6962 17.813 44.3877 17.8372 46.5588 17.936C48.726 18.0353 50.2062 18.3784 51.504 18.8818C52.8442 19.4014 53.9766 20.0969 55.109 21.2293C56.2414 22.3609 56.937 23.4967 57.4587 24.8356C57.9591 26.13 58.3027 27.6094 58.4045 29.7766C58.502 31.9481 58.5275 32.642 58.5275 38.1708C58.5275 43.6997 58.502 44.3919 58.4045 46.5634C58.3027 48.7298 57.9591 50.2095 57.4587 51.5044C56.937 52.8429 56.2414 53.9787 55.109 55.1102C53.9779 56.2426 52.8438 56.9399 51.5053 57.4599C50.21 57.9633 48.729 58.3064 46.5617 58.4057C44.3902 58.5045 43.6985 58.5287 38.1692 58.5287C32.6408 58.5287 31.9474 58.5045 29.7759 58.4057C27.609 58.3064 26.1293 57.9633 24.834 57.4599C23.4959 56.9399 22.3601 56.2426 21.229 55.1102C20.097 53.9787 19.4014 52.8429 18.881 51.5039C18.378 50.2095 18.0349 48.7302 17.9352 46.5629C17.8368 44.3914 17.8122 43.6997 17.8122 38.1708C17.8122 32.642 17.8377 31.9477 17.9348 29.7762C18.0324 27.6098 18.3759 26.13 18.8806 24.8352C19.4023 23.4967 20.0978 22.3609 21.2302 21.2293C22.3618 20.0973 23.4976 19.4018 24.8365 18.8818C26.131 18.3784 27.6103 18.0353 29.7776 17.936ZM38.1686 17.813C38.1696 17.813 38.1707 17.813 38.1718 17.813H38.1654C38.1665 17.813 38.1675 17.813 38.1686 17.813Z" fill="url(#paint0_linear_15_118)"/>
<path fill-rule="evenodd" clip-rule="evenodd" d="M36.3458 21.4809C36.7004 21.4804 37.0819 21.4805 37.4936 21.4807L38.1721 21.4809C43.6076 21.4809 44.2519 21.5004 46.3983 21.598C48.3832 21.6887 49.4605 22.0204 50.1781 22.299C51.1281 22.668 51.8055 23.1091 52.5176 23.8216C53.2301 24.5342 53.6712 25.2128 54.041 26.1628C54.3197 26.8796 54.6517 27.9568 54.7421 29.9417C54.8396 32.0878 54.8608 32.7324 54.8608 38.1654C54.8608 43.5984 54.8396 44.2431 54.7421 46.3891C54.6513 48.374 54.3197 49.4513 54.041 50.1681C53.672 51.1181 53.2301 51.7946 52.5176 52.5067C51.805 53.2192 51.1286 53.6603 50.1781 54.0293C49.4613 54.3092 48.3832 54.64 46.3983 54.7308C44.2523 54.8283 43.6076 54.8495 38.1721 54.8495C32.7361 54.8495 32.0919 54.8283 29.9458 54.7308C27.9609 54.6391 26.8837 54.3075 26.1656 54.0288C25.2156 53.6598 24.537 53.2188 23.8245 52.5062C23.112 51.7937 22.6709 51.1168 22.301 50.1664C22.0224 49.4496 21.6903 48.3723 21.6 46.3874C21.5024 44.2414 21.4829 43.5967 21.4829 38.1603C21.4829 32.7239 21.5024 32.0827 21.6 29.9366C21.6907 27.9517 22.0224 26.8745 22.301 26.1569C22.67 25.2068 23.112 24.5282 23.8245 23.8157C24.537 23.1032 25.2156 22.6621 26.1656 22.2923C26.8832 22.0123 27.9609 21.6815 29.9458 21.5903C31.8238 21.5055 32.5516 21.4801 36.3458 21.4758V21.4809ZM49.0381 24.8617C47.6894 24.8617 46.5951 25.9546 46.5951 27.3038C46.5951 28.6525 47.6894 29.7467 49.0381 29.7467C50.3868 29.7467 51.481 28.6525 51.481 27.3038C51.481 25.9551 50.3868 24.8608 49.0381 24.8608V24.8617ZM27.718 38.1709C27.718 32.3975 32.3988 27.7166 38.1722 27.7163C43.9458 27.7163 48.6255 32.3974 48.6255 38.1709C48.6255 43.9445 43.9462 48.6234 38.1726 48.6234C32.3991 48.6234 27.718 43.9445 27.718 38.1709Z" fill="url(#paint1_linear_15_118)"/>
<path fill-rule="evenodd" clip-rule="evenodd" d="M38.1727 31.3853C41.9202 31.3853 44.9586 34.4232 44.9586 38.1712C44.9586 41.9187 41.9202 44.9571 38.1727 44.9571C34.4247 44.9571 31.3867 41.9187 31.3867 38.1712C31.3867 34.4232 34.4247 31.3853 38.1727 31.3853V31.3853Z" fill="url(#paint2_linear_15_118)"/>
<defs>
<linearGradient id="paint0_linear_15_118" x1="40" y1="-30.5" x2="40" y2="47.5" gradientUnits="userSpaceOnUse">
<stop stop-color="#F57E10" stop-opacity="0"/>
<stop offset="1" stop-color="#FA3030" stop-opacity="0.83"/>
</linearGradient>
<linearGradient id="paint1_linear_15_118" x1="38.9718" y1="8.14228" x2="38.9718" y2="42.2412" gradientUnits="userSpaceOnUse">
<stop stop-color="#F57E10" stop-opacity="0"/>
<stop offset="1" stop-color="#FA3030" stop-opacity="0.83"/>
</linearGradient>
<linearGradient id="paint2_linear_15_118" x1="38.4979" y1="25.963" x2="38.4979" y2="39.8298" gradientUnits="userSpaceOnUse">
<stop stop-color="#F57E10" stop-opacity="0"/>
<stop offset="1" stop-color="#FA3030" stop-opacity="0.83"/>
</linearGradient>
</defs>
</svg>
