<svg width="77" height="77" viewBox="0 0 77 77" fill="none" xmlns="http://www.w3.org/2000/svg">
<path fill-rule="evenodd" clip-rule="evenodd" d="M38.1705 0C17.0895 0 0 17.0895 0 38.1705C0 59.2515 17.0895 76.341 38.1705 76.341C59.2515 76.341 76.341 59.2515 76.341 38.1705C76.341 17.0895 59.2515 0 38.1705 0ZM18.3232 31.614H26.9734V57.6045H18.3232V31.614ZM27.5435 23.5747C27.4873 21.0263 25.665 19.0853 22.7058 19.0853C19.7466 19.0853 17.812 21.0263 17.812 23.5747C17.812 26.0702 19.6894 28.0671 22.5935 28.0671H22.6488C25.665 28.0671 27.5435 26.0702 27.5435 23.5747ZM48.2115 31.0048C53.9037 31.0048 58.1712 34.7203 58.1712 42.7034L58.1708 57.6056H49.5209V43.7006C49.5209 40.208 48.2692 37.8248 45.1377 37.8248C42.7479 37.8248 41.3244 39.4314 40.6993 40.9832C40.4705 41.5394 40.4144 42.3143 40.4144 43.091V57.6062H31.7631C31.7631 57.6062 31.8771 34.0546 31.7631 31.6158H40.4144V35.2971C41.5625 33.5274 43.6187 31.0048 48.2115 31.0048Z" fill="#0D5DB5"/>
</svg>
