<svg width="77" height="77" viewBox="0 0 77 77" fill="none" xmlns="http://www.w3.org/2000/svg">
<path fill-rule="evenodd" clip-rule="evenodd" d="M38.1705 0C17.0895 0 0 17.0895 0 38.1705C0 59.2515 17.0895 76.341 38.1705 76.341C59.2515 76.341 76.341 59.2515 76.341 38.1705C76.341 17.0895 59.2515 0 38.1705 0ZM37.1072 32.3452L37.0271 31.0244C36.7868 27.6011 38.8961 24.4744 42.2335 23.2614C43.4617 22.8301 45.5442 22.7762 46.9059 23.1536C47.4399 23.3153 48.4545 23.8544 49.1754 24.3396L50.4836 25.2291L51.9254 24.7709C52.7264 24.5283 53.7944 24.124 54.275 23.8544C54.7289 23.6118 55.1293 23.4771 55.1293 23.5579C55.1293 24.0162 54.1415 25.5795 53.3138 26.4421C52.1924 27.6551 52.5128 27.7629 54.7822 26.9542C56.1439 26.496 56.1706 26.496 55.9036 27.0081C55.7434 27.2777 54.9157 28.2211 54.0347 29.0837C52.5395 30.5662 52.4594 30.7279 52.4594 31.9678C52.4594 33.8816 51.5516 37.8709 50.6438 40.0543C48.9618 44.1514 45.3573 48.3833 41.7529 50.5127C36.68 53.5047 29.925 54.2595 24.238 52.5074C22.3424 51.9144 19.085 50.4049 19.085 50.1354C19.085 50.0545 20.0729 49.9467 21.2744 49.9197C23.7841 49.8658 26.2939 49.165 28.4299 47.9251L29.8716 47.0625L28.2163 46.4965C25.8667 45.6878 23.7574 43.8279 23.2235 42.0759C23.0633 41.5098 23.1167 41.4829 24.6118 41.4829L26.1604 41.4559L24.8521 40.836C23.3036 40.0543 21.8885 38.7335 21.1943 37.3857C20.687 36.4154 20.0462 33.9625 20.2331 33.7738C20.2865 33.6929 20.8472 33.8547 21.488 34.0703C23.3303 34.7442 23.5706 34.5824 22.5026 33.4503C20.5001 31.4018 19.886 28.3559 20.8472 25.4717L21.3011 24.1779L23.0633 25.93C26.6677 29.461 30.9129 31.5635 35.7722 32.1835L37.1072 32.3452Z" fill="white"/>
</svg>
